# xmcd CD database file
#
# Track frame offsets:
#	150
#	19536
#	40415
#	53688
#	80780
#	99262
#
# Disc length: 1494 seconds
#
# Revision: 0
# Processed by: cddbd v1.5.1PL0 Copyright (c) Steve Scherf et al.
# Submitted via: CDex 1.50
#
DISCID=3f05d406
DTITLE=Plum'tucker - East/West
DYEAR=2004
DGENRE=Country
TTITLE0=Lady Persuasion
TTITLE1=Colorado
TTITLE2=Of Seasons
TTITLE3=Falling Up
TTITLE4=Carolina Blue
TTITLE5=I've Found You
EXTD=YEAR: 2004
EXTT0=
EXTT1=
EXTT2=
EXTT3=
EXTT4=
EXTT5=
PLAYORDER=
